<?xml version="1.0" encoding="UTF-8"?>
<svg xmlns="http://www.w3.org/2000/svg" width="1371" height="288" viewBox="152 306 1371 288" role="img" aria-labelledby="title description">
  <title id="title">CopyReplace primary logo</title>
  <desc id="description">Guide-palette derivative of supplied artwork; original outlined letterforms preserved. Copy Blue symbol and Ink lettering.</desc>
  <g id="symbol"><path d="M 391.462 309.054 C 389.792 309.545, 387.092 311.338, 385.462 313.038 C 382.661 315.961, 382.473 316.690, 382 326.437 L 381.500 336.745 372.502 331.369 C 346.357 315.747, 312.802 308.318, 285.322 312.067 C 229.263 319.717, 179.744 360.852, 160.687 415.600 C 152.245 439.855, 151.641 471.973, 159.231 493.016 C 161.756 500.017, 163.444 501.607, 167.316 500.635 C 170.985 499.715, 171.700 497.856, 172.970 485.951 C 175.513 462.093, 181.236 456.349, 203.093 455.714 C 218.916 455.255, 218.966 455.216, 220.556 442 C 221.377 435.179, 224.270 426.503, 228.559 418 C 241.807 391.738, 270.002 374.674, 300 374.765 C 323.067 374.835, 341.137 381.842, 357.342 397.001 L 364 403.229 364 411.380 C 364 420.803, 365.761 425.175, 370.999 428.750 C 376.932 432.800, 384.477 431.744, 391.635 425.861 C 393.884 424.013, 407.134 413.500, 421.078 402.500 C 453.509 376.916, 453 377.408, 453 371.624 C 453 367.109, 452.742 366.753, 433.250 344.419 C 422.387 331.972, 411.540 319.474, 409.144 316.644 C 402.989 309.376, 397.857 307.173, 391.462 309.054 M 189.695 470.863 C 183.486 474.957, 183.500 474.880, 183.500 505 C 183.500 528.967, 183.718 532.898, 185.195 535.594 C 188.086 540.871, 205.820 558.729, 214.876 565.483 C 264.648 602.600, 333.752 600.829, 383 561.175 C 390.482 555.150, 410.102 535.684, 411.599 532.800 C 414.048 528.081, 412.493 520.535, 408.611 518.300 C 407.848 517.860, 399.921 510.525, 390.997 502 C 373.193 484.991, 373.445 485.169, 367 485.074 C 360.940 484.984, 357.067 487.539, 352.042 494.938 C 343.212 507.940, 329.511 518.373, 314.193 523.756 C 307.304 526.177, 305.088 526.461, 293 526.472 C 280.395 526.484, 278.919 526.278, 270.739 523.358 C 265.920 521.638, 259.473 518.716, 256.413 516.865 C 249.324 512.578, 237.989 503.210, 238.034 501.674 C 238.053 501.028, 241.614 497.800, 245.947 494.500 C 256.961 486.112, 258.769 482.530, 255.484 475.607 C 252.453 469.221, 251.274 468.999, 220.346 469.007 C 194.940 469.013, 192.254 469.175, 189.695 470.863" stroke="none" fill="#1557FF" fill-rule="evenodd"/></g>
  <g id="wordmark"><path d="M 1119 451.500 L 1119 534 1134.500 534 L 1150 534 1150 451.500 L 1150 369 1134.500 369 L 1119 369 1119 451.500 M 468.075 420.087 C 448.480 423.932, 433.602 434.582, 425.160 450.809 C 398.011 502.992, 454.542 555.619, 509 528.859 C 533.901 516.623, 546.385 489.569, 539.460 462.847 C 535.315 446.849, 524.306 433.715, 508.500 425.913 C 496.277 419.879, 480.630 417.624, 468.075 420.087 M 603.265 420.542 C 596.151 422.457, 588.733 426.343, 583.964 430.651 L 580 434.233 580 428.116 L 580 422 564 422 L 548 422 548 500 L 548 578 564 578 L 580 578 580 549.384 L 580 520.767 584.127 524.495 C 605.598 543.894, 643.543 537.409, 660.962 511.364 C 668.240 500.484, 670.500 492.458, 670.500 477.500 C 670.500 458.311, 664.806 445.080, 651.351 433 C 638.522 421.483, 618.770 416.366, 603.265 420.542 M 907.870 420.071 C 871.981 425.343, 850.005 458.328, 858.985 493.443 C 864.321 514.303, 881.211 529.748, 904 534.604 C 920.977 538.222, 943.262 534.658, 955.962 526.295 C 962.059 522.280, 971 513.546, 971 511.606 C 971 510.913, 965.580 507.139, 958.956 503.219 L 946.912 496.092 943.366 500.016 C 935.960 508.215, 922.988 511.639, 910.943 508.576 C 900.334 505.879, 891.393 498.400, 889.431 490.581 L 888.783 488 932.873 488 L 976.962 488 977.620 485.376 C 977.983 483.933, 978.030 478.645, 977.725 473.626 C 975.563 438.029, 945.020 414.613, 907.870 420.071 M 1046.500 419.641 C 1036.026 421.229, 1026.990 425.394, 1020.640 431.561 L 1017 435.096 1017 428.548 L 1017 422 1001.500 422 L 986 422 986 501.026 L 986 580.052 1001.250 579.776 L 1016.500 579.500 1016.765 550.178 L 1017.030 520.857 1021.641 524.915 C 1035.954 537.514, 1060.093 539.552, 1080 529.843 C 1088.813 525.544, 1100.543 513.815, 1104.843 505 C 1118.716 476.567, 1107.903 440.650, 1081.284 426.738 C 1070.249 420.971, 1056.383 418.142, 1046.500 419.641 M 1206.500 420.078 C 1172.604 425.805, 1151.454 458.604, 1159.540 492.907 C 1168.600 531.346, 1219.884 549.748, 1247.750 524.560 L 1253 519.815 1253 526.388 C 1253 534.414, 1252.467 534.189, 1270.500 533.788 L 1283.500 533.500 1283.758 477.750 L 1284.017 422 1268.508 422 L 1253 422 1253 428.627 L 1253 435.255 1248.430 431.042 C 1238.199 421.612, 1222.195 417.427, 1206.500 420.078 M 1342.756 420.032 C 1312.367 424.766, 1291.076 448.451, 1291.015 477.590 C 1290.945 511.012, 1317.228 535.965, 1352.500 535.965 C 1369.428 535.965, 1383.352 530.478, 1395 519.215 L 1401.500 512.931 1399 511.015 C 1392.919 506.356, 1378.035 496, 1377.420 496 C 1377.047 496, 1374.943 497.626, 1372.744 499.613 C 1356.535 514.256, 1329.234 507.372, 1323.358 487.159 C 1318.938 471.954, 1325.824 457.073, 1340.352 450.434 C 1345.559 448.055, 1347.103 447.809, 1354.352 448.204 C 1363.488 448.702, 1367.047 450.159, 1373.374 455.990 L 1377.518 459.811 1388.009 452.359 C 1403.239 441.541, 1402.657 442.967, 1394.869 435.554 C 1381.844 423.156, 1361.534 417.107, 1342.756 420.032 M 1451.169 420.025 C 1426.457 423.622, 1407.406 439.988, 1401.489 462.703 C 1399.555 470.130, 1399.576 485.954, 1401.531 493.458 C 1408.167 518.934, 1432.466 536.009, 1462 535.948 C 1482.121 535.906, 1496.808 530.473, 1508.289 518.823 C 1512.022 515.034, 1514.850 511.566, 1514.571 511.115 C 1514.293 510.665, 1508.605 507.032, 1501.933 503.042 L 1489.800 495.787 1486.826 499.394 C 1477.630 510.551, 1458.383 513.029, 1444.134 504.892 C 1438.982 501.949, 1433.655 495.458, 1432.449 490.654 L 1431.783 488 1475.775 488 L 1519.767 488 1520.370 485.750 C 1521.413 481.857, 1521.021 472.764, 1519.501 465.588 C 1512.810 434.003, 1484.559 415.166, 1451.169 420.025 M 840 422.661 C 833.453 424.939, 827.982 428.916, 824 434.293 L 820.500 439.019 820.211 430.509 L 819.922 422 804.453 422 L 788.983 422 789.242 477.750 L 789.500 533.500 805 533.500 L 820.500 533.500 821 502.500 C 821.483 472.542, 821.579 471.340, 823.838 466.753 C 828.372 457.545, 837.069 452.457, 850.250 451.302 L 857 450.710 857 435.855 L 857 421 850.750 421.048 C 847.313 421.074, 842.475 421.800, 840 422.661 M 664.951 428.750 C 666.512 432.462, 670.262 441.350, 673.286 448.500 C 693.468 496.222, 706.997 529.248, 706.978 530.750 C 706.949 533.085, 703.316 540.993, 701.195 543.338 C 697.852 547.036, 691.896 549.227, 684.612 549.441 C 676.089 549.692, 676.294 549.253, 676.415 567 L 676.500 579.500 688 579.390 C 701.534 579.262, 708.252 577.315, 716.403 571.161 C 726.551 563.499, 728.889 558.435, 768.185 459 C 775.901 439.475, 782.417 423.163, 782.666 422.750 C 782.915 422.337, 775.484 422, 766.153 422 L 749.188 422 747.692 426.250 C 742.586 440.761, 726.015 487.005, 725.027 489.500 L 723.840 492.500 722.456 489.880 C 721.695 488.439, 717.949 478.989, 714.132 468.880 C 706.569 448.848, 698.487 427.809, 696.990 424.250 C 696.061 422.042, 695.724 422, 679.078 422 L 662.113 422 664.951 428.750 M 908.792 446.339 C 900.572 448.662, 892.720 455.345, 890.093 462.254 L 889.050 465 917.525 465 C 934.520 465, 946 464.623, 946 464.065 C 946 459.236, 938.747 450.998, 931.904 448.054 C 925.572 445.330, 915.108 444.554, 908.792 446.339 M 1450.332 446.785 C 1443.574 449.207, 1438.471 453.187, 1434.895 458.827 C 1433.303 461.337, 1432 463.753, 1432 464.196 C 1432 464.638, 1444.825 465, 1460.500 465 C 1479.561 465, 1489 464.656, 1489 463.960 C 1489 461.643, 1484.885 455.081, 1481.794 452.468 C 1473.827 445.734, 1460.156 443.265, 1450.332 446.785 M 1041.147 448.034 C 1022.818 451.812, 1011.569 472.898, 1018.952 489.638 C 1024.067 501.237, 1034.256 507.478, 1048 507.430 C 1066.620 507.366, 1079.409 495.151, 1079.336 477.500 C 1079.254 458.031, 1060.996 443.942, 1041.147 448.034 M 1214.223 448.021 C 1195.400 451.912, 1184.290 472.336, 1191.535 489.729 C 1193.664 494.839, 1201.550 502.550, 1207.286 505.129 C 1214.378 508.318, 1227.303 508.410, 1234.122 505.320 C 1248.305 498.893, 1255.852 483.477, 1251.535 469.751 C 1246.669 454.282, 1230.234 444.710, 1214.223 448.021 M 470.324 449.439 C 463.952 451.432, 459.436 454.631, 455.695 459.803 C 451.176 466.049, 449.998 469.903, 450.010 478.399 C 450.033 495.049, 462.355 507, 479.500 507 C 488.730 507, 494.560 504.587, 501.090 498.064 C 523.139 476.038, 500.366 440.046, 470.324 449.439 M 600.994 448.934 C 581.227 454.947, 573.221 481.215, 586.445 496.665 C 592.468 503.701, 599.037 506.501, 609.500 506.493 C 619.415 506.485, 623.528 504.987, 630.536 498.834 C 639.669 490.816, 642.444 475.406, 636.743 464.377 C 633.459 458.024, 626.368 451.654, 620.266 449.575 C 615.474 447.942, 605.360 447.606, 600.994 448.934" stroke="none" fill="#111827" fill-rule="evenodd"/></g>
</svg>
